<?xml version="1.0" encoding="UTF-8" standalone="no"?>
<!-- Created with Inkscape (http://www.inkscape.org/) -->

<svg
 xmlns:dc="http://purl.org/dc/elements/1.1/"
 xmlns:cc="http://creativecommons.org/ns#"
 xmlns:rdf="http://www.w3.org/1999/02/22-rdf-syntax-ns#"
 xmlns:svg="http://www.w3.org/2000/svg"
 xmlns="http://www.w3.org/2000/svg"
 xmlns:xlink="http://www.w3.org/1999/xlink"
 xmlns:sodipodi="http://sodipodi.sourceforge.net/DTD/sodipodi-0.dtd"
 xmlns:inkscape="http://www.inkscape.org/namespaces/inkscape"
 width="772.02216mm"
 height="240.62167mm"
 viewBox="0 0 772.02216 240.62168"
 version="1.1"
 id="svg8"
 inkscape:version="0.92.3 (2405546, 2018-03-11)"
 sodipodi:docname="SYP.svg">
<defs
 id="defs2">
<linearGradient
 id="linearGradient2702"
 x1="-162.1241"
 x2="-96.439705"
 y1="161.53671"
 y2="227.49655"
 gradientTransform="matrix(3.1768492,0,0,3.1768492,786.1341,-553.96052)"
 gradientUnits="userSpaceOnUse">
<stop
 stop-color="#99c0ff"
 offset="0"
 id="stop830"
 style="stop-color:#ffffff;stop-opacity:1" />
<stop
 offset="1"
 id="stop832"
 style="stop-color:#9d9d9d;stop-opacity:1" />
</linearGradient>
<clipPath
 clipPathUnits="userSpaceOnUse"
 id="clipPath1742">
<rect
 style="opacity:1;fill:#9d9d9d;fill-opacity:1;fill-rule:evenodd;stroke:none;stroke-width:1.89999998;stroke-linecap:round;stroke-linejoin:round;stroke-miterlimit:4;stroke-dasharray:none;stroke-dashoffset:50.00315094;stroke-opacity:1;paint-order:fill markers stroke"
 id="rect1744"
 width="211.66666"
 height="132.29167"
 x="264.58334"
 y="-76.062515"
 ry="0" />
</clipPath>
<clipPath
 clipPathUnits="userSpaceOnUse"
 id="clipPath1752">
<rect
 style="opacity:1;fill:#9d9d9d;fill-opacity:1;fill-rule:evenodd;stroke:none;stroke-width:5.28353071;stroke-linecap:round;stroke-linejoin:round;stroke-miterlimit:4;stroke-dasharray:none;stroke-dashoffset:50.00315094;stroke-opacity:1;paint-order:fill markers stroke"
 id="rect1754"
 width="174.9167"
 height="314.85004"
 x="61.835701"
 y="53.395702"
 transform="rotate(-58.109204)" />
</clipPath>
<linearGradient
 inkscape:collect="always"
 xlink:href="#linearGradient2702"
 id="linearGradient1769"
 gradientUnits="userSpaceOnUse"
 gradientTransform="matrix(3.1768492,0,0,3.1768492,786.1341,-553.96052)"
 x1="-162.1241"
 y1="161.53671"
 x2="-96.439705"
 y2="227.49655" />
<linearGradient
 inkscape:collect="always"
 xlink:href="#linearGradient2702"
 id="linearGradient1771"
 gradientUnits="userSpaceOnUse"
 gradientTransform="matrix(3.1768492,0,0,3.1768492,786.1341,-553.96052)"
 x1="-162.1241"
 y1="161.53671"
 x2="-96.439705"
 y2="227.49655" />
</defs>
<sodipodi:namedview
 id="base"
 pagecolor="#ffffff"
 bordercolor="#666666"
 borderopacity="1.0"
 inkscape:pageopacity="0.0"
 inkscape:pageshadow="2"
 inkscape:zoom="0.18054155"
 inkscape:cx="680.5685"
 inkscape:cy="-16.537189"
 inkscape:document-units="mm"
 inkscape:current-layer="layer1"
 showgrid="true"
 inkscape:pagecheckerboard="true"
 showborder="false"
 inkscape:snap-bbox="true"
 inkscape:bbox-nodes="true"
 inkscape:snap-intersection-paths="true"
 inkscape:snap-smooth-nodes="true"
 inkscape:snap-midpoints="true"
 inkscape:object-paths="true"
 fit-margin-top="0"
 fit-margin-left="0"
 fit-margin-right="0"
 fit-margin-bottom="0"
 inkscape:window-width="1920"
 inkscape:window-height="1027"
 inkscape:window-x="-8"
 inkscape:window-y="-8"
 inkscape:window-maximized="1"
 inkscape:snap-bbox-midpoints="false"
 inkscape:snap-bbox-edge-midpoints="false"
 inkscape:snap-nodes="true"
 inkscape:snap-global="true">
<inkscape:grid
 type="xygrid"
 id="grid815"
 spacingx="26.458333"
 spacingy="26.458333"
 originx="320.71699"
 originy="-124.34972"
 visible="true" />
</sodipodi:namedview>
<metadata
 id="metadata5">
<rdf:RDF>
<cc:Work
 rdf:about="">
<dc:format>image/svg+xml</dc:format>
<dc:type
 rdf:resource="http://purl.org/dc/dcmitype/StillImage" />
<dc:title></dc:title>
</cc:Work>
</rdf:RDF>
</metadata>
<g
 inkscape:label="レイヤー 1"
 inkscape:groupmode="layer"
 id="layer1"
 transform="translate(320.717,67.971406)">
<g
 id="g1547"
 transform="matrix(22.832216,0,0,22.832216,5321.576,2726.9509)">
<g
 id="text1015"
 style="font-style:normal;font-variant:normal;font-weight:normal;font-stretch:normal;font-size:10.58333302px;line-height:1.25;font-family:'Moon 2.0';-inkscape-font-specification:'Moon 2.0, ';letter-spacing:0px;word-spacing:0px;fill:#000000;fill-opacity:1;stroke:none;stroke-width:0.26458332"
 aria-label="53595">
<path
 inkscape:connector-curvature="0"
 id="path1773"
 style="font-style:normal;font-variant:normal;font-weight:normal;font-stretch:normal;font-family:'Moon 2.0';-inkscape-font-specification:'Moon 2.0, ';fill:#ffffff;fill-opacity:1;stroke-width:0.26458332"
 d="m -244.68565,-113.37931 c -0.93133,0 -1.50283,-0.39158 -1.82033,-0.70908 -0.381,-0.41275 -0.61384,-0.96309 -0.61384,-1.524 0,-0.33867 0.27517,-0.61384 0.62442,-0.61384 0.33867,0 0.61383,0.27517 0.61383,0.61384 0,0.37041 0.24342,1.00541 1.19592,1.00541 0.94192,0 1.19592,-0.635 1.19592,-1.00541 0,-0.55034 -0.28575,-0.6985 -1.3335,-0.96309 -0.46567,-0.127 -0.94192,-0.24341 -1.34409,-0.508 -0.52916,-0.33866 -0.80433,-0.85725 -0.80433,-1.51341 v -1.59809 c 0,-0.33866 0.27517,-0.61383 0.61383,-0.61383 h 3.14325 c 0.33867,0 0.62442,0.27517 0.62442,0.61383 v 0.83609 c 0,0.33866 -0.28575,0.61383 -0.62442,0.61383 -0.33866,0 -0.61383,-0.27517 -0.61383,-0.61383 v -0.22225 h -1.91558 v 0.98425 c 0,0.42333 0.21166,0.56091 1.22766,0.8255 0.89959,0.23283 2.25425,0.58208 2.25425,2.159 0,0.56091 -0.22225,1.11125 -0.61383,1.524 -0.3175,0.3175 -0.889,0.70908 -1.80975,0.70908 z" />
<path
 inkscape:connector-curvature="0"
 id="path1775"
 style="font-style:normal;font-variant:normal;font-weight:normal;font-stretch:normal;font-family:'Moon 2.0';-inkscape-font-specification:'Moon 2.0, ';fill:#ffffff;fill-opacity:1;stroke-width:0.26458332"
 d="m -239.3829,-113.37931 c -0.94192,0 -1.524,-0.39158 -1.8415,-0.73025 -0.40217,-0.40217 -0.62442,-0.97367 -0.62442,-1.54517 0,-0.33866 0.27517,-0.61383 0.61383,-0.61383 0.33867,0 0.61384,0.27517 0.61384,0.61383 0,0.39159 0.26458,1.04775 1.23825,1.04775 0.98425,0 1.23825,-0.65616 1.23825,-1.04775 0,-0.55033 -0.3175,-0.73025 -1.42875,-1.04775 l -0.0847,-0.0212 c -0.29633,-0.0847 -0.47625,-0.381 -0.43392,-0.67734 0.0318,-0.27516 0.24342,-0.47625 0.49742,-0.51858 l 0.0212,-0.0106 c 0.98425,-0.28575 1.18533,-0.42334 1.18533,-0.83609 0,-0.29633 -0.21167,-0.81491 -0.99483,-0.81491 -0.78317,0 -0.99484,0.51858 -0.99484,0.81491 0,0.34925 -0.27516,0.62442 -0.61383,0.62442 -0.33867,0 -0.61383,-0.27517 -0.61383,-0.62442 0,-0.508 0.20108,-1.016 0.56091,-1.38641 0.29634,-0.30692 0.81492,-0.65617 1.66159,-0.65617 0.84666,0 1.37583,0.34925 1.66158,0.65617 0.35983,0.37041 0.56092,0.87841 0.56092,1.38641 0,0.60325 -0.22225,1.0795 -0.67734,1.42875 0.0212,0.0106 0.0529,0.0318 0.0741,0.0529 0.56091,0.381 0.85725,0.93133 0.85725,1.62983 0,0.5715 -0.23284,1.143 -0.62442,1.54517 -0.32808,0.33867 -0.89958,0.73025 -1.85208,0.73025 z" />
<path
 inkscape:connector-curvature="0"
 id="path1777"
 style="font-style:normal;font-variant:normal;font-weight:normal;font-stretch:normal;font-family:'Moon 2.0';-inkscape-font-specification:'Moon 2.0, ';fill:#ffffff;fill-opacity:1;stroke-width:0.26458332"
 d="m -234.0403,-113.37931 c -0.93134,0 -1.50284,-0.39158 -1.82034,-0.70908 -0.381,-0.41275 -0.61383,-0.96309 -0.61383,-1.524 0,-0.33867 0.27517,-0.61384 0.62442,-0.61384 0.33866,0 0.61383,0.27517 0.61383,0.61384 0,0.37041 0.24342,1.00541 1.19592,1.00541 0.94191,0 1.19591,-0.635 1.19591,-1.00541 0,-0.55034 -0.28575,-0.6985 -1.3335,-0.96309 -0.46566,-0.127 -0.94191,-0.24341 -1.34408,-0.508 -0.52917,-0.33866 -0.80433,-0.85725 -0.80433,-1.51341 v -1.59809 c 0,-0.33866 0.27516,-0.61383 0.61383,-0.61383 h 3.14325 c 0.33867,0 0.62442,0.27517 0.62442,0.61383 v 0.83609 c 0,0.33866 -0.28575,0.61383 -0.62442,0.61383 -0.33867,0 -0.61383,-0.27517 -0.61383,-0.61383 v -0.22225 h -1.91559 v 0.98425 c 0,0.42333 0.21167,0.56091 1.22767,0.8255 0.89958,0.23283 2.25425,0.58208 2.25425,2.159 0,0.56091 -0.22225,1.11125 -0.61383,1.524 -0.3175,0.3175 -0.889,0.70908 -1.80975,0.70908 z" />
<path
 inkscape:connector-curvature="0"
 id="path1779"
 style="font-style:normal;font-variant:normal;font-weight:normal;font-stretch:normal;font-family:'Moon 2.0';-inkscape-font-specification:'Moon 2.0, ';fill:#ffffff;fill-opacity:1;stroke-width:0.26458332"
 d="m -230.49439,-116.90356 c 0.4445,0.40217 1.02658,0.62442 1.66158,0.62442 0.21167,0 0.42334,-0.0212 0.62442,-0.0741 -0.11642,0.22225 -0.24342,0.42334 -0.381,0.61384 -0.56092,0.73025 -1.27,1.13241 -2.00025,1.13241 -0.33867,0 -0.61383,0.27517 -0.61383,0.61384 0,0.33866 0.27516,0.61383 0.61383,0.61383 1.12183,0 2.18017,-0.5715 2.97392,-1.60867 0.75141,-0.98425 1.15358,-2.24366 1.15358,-3.556 0,-0.635 -0.254,-1.21708 -0.70908,-1.64041 -0.4445,-0.40217 -1.02659,-0.62442 -1.66159,-0.62442 -0.635,0 -1.21708,0.22225 -1.66158,0.62442 -0.45508,0.42333 -0.70908,1.00541 -0.70908,1.64041 0,0.635 0.254,1.22767 0.70908,1.64042 z m 1.66158,-2.67758 c 0.5715,0 1.143,0.35983 1.143,1.03716 0,0.67734 -0.5715,1.03717 -1.143,1.03717 -0.5715,0 -1.143,-0.35983 -1.143,-1.03717 0,-0.67733 0.5715,-1.03716 1.143,-1.03716 z" />
<path
 inkscape:connector-curvature="0"
 id="path1781"
 style="font-style:normal;font-variant:normal;font-weight:normal;font-stretch:normal;font-family:'Moon 2.0';-inkscape-font-specification:'Moon 2.0, ';fill:#ffffff;fill-opacity:1;stroke-width:0.26458332"
 d="m -223.60166,-113.37931 c -0.93134,0 -1.50284,-0.39158 -1.82034,-0.70908 -0.381,-0.41275 -0.61383,-0.96309 -0.61383,-1.524 0,-0.33867 0.27517,-0.61384 0.62442,-0.61384 0.33866,0 0.61383,0.27517 0.61383,0.61384 0,0.37041 0.24342,1.00541 1.19592,1.00541 0.94191,0 1.19591,-0.635 1.19591,-1.00541 0,-0.55034 -0.28575,-0.6985 -1.3335,-0.96309 -0.46566,-0.127 -0.94191,-0.24341 -1.34408,-0.508 -0.52917,-0.33866 -0.80433,-0.85725 -0.80433,-1.51341 v -1.59809 c 0,-0.33866 0.27516,-0.61383 0.61383,-0.61383 h 3.14325 c 0.33867,0 0.62442,0.27517 0.62442,0.61383 v 0.83609 c 0,0.33866 -0.28575,0.61383 -0.62442,0.61383 -0.33867,0 -0.61383,-0.27517 -0.61383,-0.61383 v -0.22225 H -224.66 v 0.98425 c 0,0.42333 0.21167,0.56091 1.22767,0.8255 0.89958,0.23283 2.25425,0.58208 2.25425,2.159 0,0.56091 -0.22225,1.11125 -0.61383,1.524 -0.3175,0.3175 -0.889,0.70908 -1.80975,0.70908 z" />
</g>
</g>
<path
 inkscape:connector-curvature="0"
 id="circle904"
 d="m 449.91532,53.33733 a 84.053078,84.053078 0 0 1 -84.05308,84.05308 84.053078,84.053078 0 0 1 -84.05307,-84.05308 84.053078,84.053078 0 0 1 84.05307,-84.053078 84.053078,84.053078 0 0 1 84.05308,84.053078 z"
 style="fill:url(#linearGradient1769);fill-rule:evenodd;stroke-width:3.17684913;paint-order:normal" />
<path
 inkscape:connector-curvature="0"
 id="path1732"
 d="M 430.86534,-62.987692 A 56.987617,130.02809 27.508773 0 1 421.35199,78.661127 56.987617,130.02809 27.508773 0 1 310.74944,167.66657 56.987617,130.02809 27.508773 0 1 320.26278,26.017743 56.987617,130.02809 27.508773 0 1 430.86534,-62.987692 Z"
 style="opacity:1;fill:none;fill-opacity:1;fill-rule:evenodd;stroke:#ffffff;stroke-width:9.396;stroke-linecap:round;stroke-linejoin:round;stroke-miterlimit:4;stroke-dasharray:none;stroke-dashoffset:50.00315094;stroke-opacity:1;paint-order:fill markers stroke" />
<path
 inkscape:connector-curvature="0"
 id="circle1748"
 d="m 449.91532,53.33733 a 84.053078,84.053078 0 0 1 -84.05308,84.05308 84.053078,84.053078 0 0 1 -84.05307,-84.05308 84.053078,84.053078 0 0 1 84.05307,-84.053078 84.053078,84.053078 0 0 1 84.05308,84.053078 z"
 clip-path="url(#clipPath1752)"
 style="fill:url(#linearGradient1771);fill-rule:evenodd;stroke-width:3.17684913;paint-order:normal" />
</g>
</svg>
