<?xml version="1.0" encoding="UTF-8" standalone="no"?>
<!-- Created with Inkscape (http://www.inkscape.org/) -->

<svg
 xmlns:dc="http://purl.org/dc/elements/1.1/"
 xmlns:cc="http://creativecommons.org/ns#"
 xmlns:rdf="http://www.w3.org/1999/02/22-rdf-syntax-ns#"
 xmlns:svg="http://www.w3.org/2000/svg"
 xmlns="http://www.w3.org/2000/svg"
 xmlns:sodipodi="http://sodipodi.sourceforge.net/DTD/sodipodi-0.dtd"
 xmlns:inkscape="http://www.inkscape.org/namespaces/inkscape"
 width="232.57143mm"
 height="120.50201mm"
 viewBox="0 0 232.57143 120.50201"
 version="1.1"
 id="svg3776"
 inkscape:version="0.92.3 (2405546, 2018-03-11)"
 sodipodi:docname="SYPL.svg">
<defs
 id="defs3770" />
<sodipodi:namedview
 id="base"
 pagecolor="#ffffff"
 bordercolor="#666666"
 borderopacity="1.0"
 inkscape:pageopacity="0.0"
 inkscape:pageshadow="2"
 inkscape:zoom="0.35"
 inkscape:cx="446.64792"
 inkscape:cy="250.57749"
 inkscape:document-units="mm"
 inkscape:current-layer="layer1"
 showgrid="false"
 inkscape:pagecheckerboard="true"
 showborder="false"
 fit-margin-top="0"
 fit-margin-left="0"
 fit-margin-right="0"
 fit-margin-bottom="0"
 inkscape:window-width="1920"
 inkscape:window-height="1027"
 inkscape:window-x="-8"
 inkscape:window-y="-8"
 inkscape:window-maximized="1" />
<metadata
 id="metadata3773">
<rdf:RDF>
<cc:Work
 rdf:about="">
<dc:format>image/svg+xml</dc:format>
<dc:type
 rdf:resource="http://purl.org/dc/dcmitype/StillImage" />
<dc:title></dc:title>
</cc:Work>
</rdf:RDF>
</metadata>
<g
 inkscape:label="レイヤー 1"
 inkscape:groupmode="layer"
 id="layer1"
 transform="translate(204.73214,-94.629948)">
<g
 aria-label="SHOMAYAMAMOTOPORTFOLIO"
 style="font-size:44.58499908px;line-height:1;font-family:'Moon 2.0';letter-spacing:1.32290006px;word-spacing:0px;fill:#ffffff;stroke-width:1.11459994"
 id="text920-1"
 transform="translate(-680.98215,-136.1607)">
<path
 d="m 486.46086,262.12271 c -3.92348,0 -6.28649,-1.64964 -7.62404,-2.98719 -1.64964,-1.73882 -2.58593,-4.05724 -2.58593,-6.42024 0,-1.42672 1.15921,-2.58593 2.58593,-2.58593 1.42672,0 2.58593,1.15921 2.58593,2.58593 0,1.56047 1.07004,4.23557 5.03811,4.23557 3.96806,0 5.0381,-2.6751 5.0381,-4.23557 0,-2.36301 -1.29296,-3.07637 -5.66229,-4.32475 -1.96174,-0.5796 -3.96807,-1.15921 -5.61771,-2.31842 -2.22925,-1.51589 -3.34388,-3.65597 -3.34388,-6.42024 0,-2.22925 0.8917,-4.41391 2.40759,-6.01897 1.24838,-1.29297 3.52222,-2.80886 7.17819,-2.80886 3.70055,0 5.9298,1.51589 7.17818,2.80886 1.56048,1.60506 2.45218,3.78972 2.45218,6.01897 0,1.42672 -1.15921,2.58593 -2.63052,2.58593 -1.42672,0 -2.58593,-1.15921 -2.58593,-2.58593 0,-1.33755 -0.93628,-3.65597 -4.41391,-3.65597 -3.47763,0 -4.41392,2.31842 -4.41392,3.65597 0,1.73882 0.66878,2.40759 5.21645,3.74514 2.05091,0.57961 4.19099,1.2038 5.9298,2.45218 2.31842,1.60506 3.47763,3.92348 3.47763,6.86609 0,2.363 -0.93628,4.68142 -2.58593,6.42024 -1.29296,1.33755 -3.70055,2.98719 -7.62403,2.98719 z"
 id="path977-5"
 inkscape:connector-curvature="0" />
<path
 d="m 521.98254,230.82404 c -1.42672,0 -2.63051,1.15921 -2.63051,2.58593 v 11.50293 h -14.40096 v -11.50293 c 0,-1.42672 -1.15921,-2.58593 -2.58593,-2.58593 -1.42672,0 -2.58593,1.15921 -2.58593,2.58593 v 26.12681 c 0,1.42672 1.15921,2.58593 2.58593,2.58593 1.42672,0 2.58593,-1.15921 2.58593,-2.58593 v -9.45202 h 14.40096 v 9.45202 c 0,1.42672 1.20379,2.58593 2.63051,2.58593 1.42672,0 2.58593,-1.15921 2.58593,-2.58593 v -26.12681 c 0,-1.42672 -1.15921,-2.58593 -2.58593,-2.58593 z"
 id="path979-0"
 inkscape:connector-curvature="0" />
<path
 d="m 543.31087,262.12271 c -8.64949,0 -15.64933,-6.99984 -15.64933,-15.64933 0,-8.60491 6.99984,-15.64934 15.64933,-15.64934 8.60491,0 15.64934,7.04443 15.64934,15.64934 0,8.64949 -7.04443,15.64933 -15.64934,15.64933 z m 0,-26.12681 c -5.79605,0 -10.47747,4.72601 -10.47747,10.47748 0,5.79605 4.68142,10.47747 10.47747,10.47747 5.75147,0 10.47748,-4.68142 10.47748,-10.47747 0,-5.75147 -4.72601,-10.47748 -10.47748,-10.47748 z"
 id="path981-5"
 inkscape:connector-curvature="0" />
<path
 d="m 588.15708,262.12271 c -1.42672,0 -2.58593,-1.15921 -2.58593,-2.63051 v -17.61108 l -6.99984,10.43289 c -0.49044,0.71336 -1.29297,1.15921 -2.14008,1.15921 -0.8917,0 -1.69423,-0.44585 -2.18467,-1.15921 l -6.99984,-10.43289 v 17.61108 c 0,1.4713 -1.15921,2.63051 -2.58593,2.63051 -1.42672,0 -2.58593,-1.15921 -2.58593,-2.63051 v -26.12681 c 0,-1.11463 0.75794,-2.14008 1.82798,-2.45218 1.11463,-0.35668 2.27384,0.0892 2.89803,1.02546 l 9.63036,14.2672 9.58577,-14.2672 c 0.62419,-0.93629 1.7834,-1.38214 2.89803,-1.02546 1.07004,0.3121 1.82798,1.33755 1.82798,2.45218 v 26.12681 c 0,1.4713 -1.15921,2.63051 -2.58593,2.63051 z"
 id="path983-0"
 inkscape:connector-curvature="0" />
<path
 d="m 621.69683,258.51133 -11.45834,-26.12681 c -0.40127,-0.98087 -1.33755,-1.56048 -2.36301,-1.56048 -1.02545,0 -1.96174,0.57961 -2.363,1.56048 l -11.45835,26.12681 c -0.53502,1.29296 0.0446,2.80885 1.33755,3.38846 1.33755,0.5796 2.85344,0 3.43305,-1.33755 l 2.6751,-6.15273 h 12.75131 l 2.6751,6.15273 c 0.44585,0.98087 1.38213,1.56047 2.363,1.56047 0.35668,0 0.71336,-0.0446 1.07004,-0.22292 1.29297,-0.57961 1.91716,-2.0955 1.33755,-3.38846 z m -17.92317,-9.27368 4.10182,-9.36285 4.10182,9.36285 z"
 id="path985-1"
 inkscape:connector-curvature="0" />
<path
 d="m 498.18671,275.85488 c -1.20379,-0.80253 -2.80885,-0.49043 -3.61138,0.66878 l -6.82151,9.94245 -6.77692,-9.94245 c -0.80253,-1.15921 -2.40759,-1.47131 -3.61138,-0.66878 -1.15921,0.80253 -1.47131,2.40759 -0.66878,3.61139 l 8.47115,12.39463 v 12.26087 c 0,1.42672 1.15921,2.58593 2.58593,2.58593 1.47131,0 2.63052,-1.15921 2.63052,-2.58593 V 291.8609 l 8.47115,-12.39463 c 0.80253,-1.2038 0.49043,-2.80886 -0.66878,-3.61139 z"
 id="path987-1"
 inkscape:connector-curvature="0" />
<path
 d="m 524.37829,303.09632 -11.45835,-26.12681 c -0.40126,-0.98087 -1.33755,-1.56048 -2.363,-1.56048 -1.02546,0 -1.96174,0.57961 -2.36301,1.56048 l -11.45834,26.12681 c -0.53502,1.29296 0.0446,2.80885 1.33755,3.38846 1.33755,0.5796 2.85344,0 3.43305,-1.33755 l 2.6751,-6.15273 h 12.7513 l 2.6751,6.15273 c 0.44585,0.98087 1.38214,1.56047 2.36301,1.56047 0.35668,0 0.71336,-0.0446 1.07004,-0.22292 1.29296,-0.57961 1.91715,-2.0955 1.33755,-3.38846 z m -17.92317,-9.27368 4.10182,-9.36285 4.10182,9.36285 z"
 id="path989-6"
 inkscape:connector-curvature="0" />
<path
 d="m 553.83084,306.7077 c -1.42672,0 -2.58593,-1.15921 -2.58593,-2.63051 v -17.61108 l -6.99985,10.43289 c -0.49043,0.71336 -1.29296,1.15921 -2.14008,1.15921 -0.8917,0 -1.69423,-0.44585 -2.18466,-1.15921 l -6.99985,-10.43289 v 17.61108 c 0,1.4713 -1.15921,2.63051 -2.58593,2.63051 -1.42672,0 -2.58593,-1.15921 -2.58593,-2.63051 v -26.12681 c 0,-1.11463 0.75795,-2.14008 1.82799,-2.45218 1.11462,-0.35668 2.27383,0.0892 2.89802,1.02546 l 9.63036,14.2672 9.58578,-14.2672 c 0.62419,-0.93629 1.7834,-1.38214 2.89802,-1.02546 1.07004,0.3121 1.82799,1.33755 1.82799,2.45218 v 26.12681 c 0,1.4713 -1.15921,2.63051 -2.58593,2.63051 z"
 id="path991-5"
 inkscape:connector-curvature="0" />
<path
 d="m 587.37058,303.09632 -11.45834,-26.12681 c -0.40127,-0.98087 -1.33755,-1.56048 -2.36301,-1.56048 -1.02545,0 -1.96174,0.57961 -2.363,1.56048 l -11.45835,26.12681 c -0.53502,1.29296 0.0446,2.80885 1.33755,3.38846 1.33755,0.5796 2.85344,0 3.43305,-1.33755 l 2.6751,-6.15273 h 12.75131 l 2.6751,6.15273 c 0.44585,0.98087 1.38213,1.56047 2.363,1.56047 0.35668,0 0.71336,-0.0446 1.07004,-0.22292 1.29297,-0.57961 1.91716,-2.0955 1.33755,-3.38846 z m -17.92317,-9.27368 4.10182,-9.36285 4.10182,9.36285 z"
 id="path993-6"
 inkscape:connector-curvature="0" />
<path
 d="m 616.82313,306.7077 c -1.42672,0 -2.58593,-1.15921 -2.58593,-2.63051 v -17.61108 l -6.99985,10.43289 c -0.49043,0.71336 -1.29296,1.15921 -2.14008,1.15921 -0.8917,0 -1.69423,-0.44585 -2.18466,-1.15921 l -6.99985,-10.43289 v 17.61108 c 0,1.4713 -1.15921,2.63051 -2.58593,2.63051 -1.42672,0 -2.58593,-1.15921 -2.58593,-2.63051 v -26.12681 c 0,-1.11463 0.75795,-2.14008 1.82799,-2.45218 1.11462,-0.35668 2.27383,0.0892 2.89802,1.02546 l 9.63036,14.2672 9.58578,-14.2672 c 0.62419,-0.93629 1.7834,-1.38214 2.89802,-1.02546 1.07004,0.3121 1.82799,1.33755 1.82799,2.45218 v 26.12681 c 0,1.4713 -1.15921,2.63051 -2.58593,2.63051 z"
 id="path995-6"
 inkscape:connector-curvature="0" />
<path
 d="m 638.19117,306.7077 c -8.64949,0 -15.64934,-6.99984 -15.64934,-15.64933 0,-8.60491 6.99985,-15.64934 15.64934,-15.64934 8.6049,0 15.64933,7.04443 15.64933,15.64934 0,8.64949 -7.04443,15.64933 -15.64933,15.64933 z m 0,-26.12681 c -5.79605,0 -10.47748,4.72601 -10.47748,10.47748 0,5.79605 4.68143,10.47747 10.47748,10.47747 5.75146,0 10.47747,-4.68142 10.47747,-10.47747 0,-5.75147 -4.72601,-10.47748 -10.47747,-10.47748 z"
 id="path997-3"
 inkscape:connector-curvature="0" />
<path
 d="m 675.36528,275.40903 h -19.39447 c -1.42672,0 -2.58593,1.15921 -2.58593,2.58593 0,1.42672 1.15921,2.58593 2.58593,2.58593 h 7.08901 v 23.54088 c 0,1.42672 1.15921,2.58593 2.58593,2.58593 1.47131,0 2.63052,-1.15921 2.63052,-2.58593 v -23.54088 h 7.08901 c 1.42672,0 2.58593,-1.15921 2.58593,-2.58593 0,-1.42672 -1.15921,-2.58593 -2.58593,-2.58593 z"
 id="path999-3"
 inkscape:connector-curvature="0" />
<path
 d="m 693.17209,306.7077 c -8.64949,0 -15.64933,-6.99984 -15.64933,-15.64933 0,-8.60491 6.99984,-15.64934 15.64933,-15.64934 8.60491,0 15.64934,7.04443 15.64934,15.64934 0,8.64949 -7.04443,15.64933 -15.64934,15.64933 z m 0,-26.12681 c -5.79605,0 -10.47747,4.72601 -10.47747,10.47748 0,5.79605 4.68142,10.47747 10.47747,10.47747 5.75147,0 10.47748,-4.68142 10.47748,-10.47747 0,-5.75147 -4.72601,-10.47748 -10.47748,-10.47748 z"
 id="path1001-1"
 inkscape:connector-curvature="0" />
<path
 d="m 487.5309,319.94941 h -8.69408 c -1.42672,0 -2.58593,1.15921 -2.58593,2.58593 v 26.12681 c 0,1.4713 1.15921,2.63051 2.58593,2.63051 1.42672,0 2.58593,-1.15921 2.58593,-2.63051 v -6.01898 h 6.10815 c 6.2419,0 11.32459,-5.08269 11.32459,-11.36917 0,-6.2419 -5.08269,-11.32459 -11.32459,-11.32459 z m 0,17.47732 h -6.10815 v -12.26088 h 6.10815 c 3.38846,0 6.15273,2.71969 6.15273,6.10815 0,3.43304 -2.76427,6.15273 -6.15273,6.15273 z"
 id="path1003-1"
 inkscape:connector-curvature="0" />
<path
 d="m 517.17015,351.29266 c -8.64949,0 -15.64934,-6.99984 -15.64934,-15.64933 0,-8.60491 6.99985,-15.64934 15.64934,-15.64934 8.6049,0 15.64933,7.04443 15.64933,15.64934 0,8.64949 -7.04443,15.64933 -15.64933,15.64933 z m 0,-26.12681 c -5.79605,0 -10.47748,4.72601 -10.47748,10.47748 0,5.79605 4.68143,10.47747 10.47748,10.47747 5.75146,0 10.47747,-4.68142 10.47747,-10.47747 0,-5.75147 -4.72601,-10.47748 -10.47747,-10.47748 z"
 id="path1005-7"
 inkscape:connector-curvature="0" />
<path
 d="m 552.16308,341.48396 c 3.78973,-1.82798 6.37566,-5.70688 6.37566,-10.16538 0,-6.2419 -5.08269,-11.32459 -11.32459,-11.32459 h -8.69408 c -1.42672,0 -2.58593,1.15921 -2.58593,2.58593 v 26.12681 c 0,1.42672 1.15921,2.58593 2.58593,2.58593 1.42672,0 2.58593,-1.15921 2.58593,-2.58593 v -6.06356 h 4.99352 l 7.57945,7.84696 c 0.49044,0.53502 1.15921,0.80253 1.87257,0.80253 0.62419,0 1.29297,-0.22292 1.7834,-0.71336 1.02546,-1.02545 1.07004,-2.63051 0.0892,-3.70055 z M 541.106,325.16585 h 6.10815 c 3.38846,0 6.10814,2.76427 6.10814,6.15273 0,3.38846 -2.71968,6.15273 -6.10814,6.15273 H 541.106 Z"
 id="path1007-4"
 inkscape:connector-curvature="0" />
<path
 d="m 582.31366,319.99399 h -19.39447 c -1.42672,0 -2.58593,1.15921 -2.58593,2.58593 0,1.42672 1.15921,2.58593 2.58593,2.58593 h 7.08901 v 23.54088 c 0,1.42672 1.15921,2.58593 2.58593,2.58593 1.47131,0 2.63052,-1.15921 2.63052,-2.58593 v -23.54088 h 7.08901 c 1.42672,0 2.58593,-1.15921 2.58593,-2.58593 0,-1.42672 -1.15921,-2.58593 -2.58593,-2.58593 z"
 id="path1009-2"
 inkscape:connector-curvature="0" />
<path
 d="m 607.65883,319.99399 h -17.03147 c -1.42672,0 -2.58593,1.15921 -2.58593,2.58593 v 26.12681 c 0,1.42672 1.15921,2.58593 2.58593,2.58593 1.42672,0 2.63051,-1.15921 2.63051,-2.58593 v -11.10166 h 10.03163 c 1.42672,0 2.58593,-1.15921 2.58593,-2.58593 0,-1.42672 -1.15921,-2.63052 -2.58593,-2.63052 h -10.03163 v -7.22277 h 14.40096 c 1.4713,0 2.63051,-1.15921 2.63051,-2.58593 0,-1.42672 -1.15921,-2.58593 -2.63051,-2.58593 z"
 id="path1011-0"
 inkscape:connector-curvature="0" />
<path
 d="m 625.47748,351.29266 c -8.64949,0 -15.64933,-6.99984 -15.64933,-15.64933 0,-8.60491 6.99984,-15.64934 15.64933,-15.64934 8.60491,0 15.64934,7.04443 15.64934,15.64934 0,8.64949 -7.04443,15.64933 -15.64934,15.64933 z m 0,-26.12681 c -5.79605,0 -10.47747,4.72601 -10.47747,10.47748 0,5.79605 4.68142,10.47747 10.47747,10.47747 5.75147,0 10.47748,-4.68142 10.47748,-10.47747 0,-5.75147 -4.72601,-10.47748 -10.47748,-10.47748 z"
 id="path1013-1"
 inkscape:connector-curvature="0" />
<path
 d="m 661.71878,351.29266 h -14.89139 c -1.42672,0 -2.58593,-1.15921 -2.58593,-2.58593 v -26.12681 c 0,-1.42672 1.15921,-2.58593 2.58593,-2.58593 1.42672,0 2.58593,1.15921 2.58593,2.58593 v 23.54088 h 12.30546 c 1.47131,0 2.63052,1.15921 2.63052,2.58593 0,1.42672 -1.15921,2.58593 -2.63052,2.58593 z"
 id="path1015-1"
 inkscape:connector-curvature="0" />
<path
 d="m 670.23032,351.29266 c -1.42672,0 -2.58593,-1.15921 -2.58593,-2.58593 v -26.12681 c 0,-1.42672 1.15921,-2.58593 2.58593,-2.58593 1.42672,0 2.63052,1.15921 2.63052,2.58593 v 26.12681 c 0,1.42672 -1.2038,2.58593 -2.63052,2.58593 z"
 id="path1017-3"
 inkscape:connector-curvature="0" />
<path
 d="m 691.88259,351.29266 c -8.64949,0 -15.64934,-6.99984 -15.64934,-15.64933 0,-8.60491 6.99985,-15.64934 15.64934,-15.64934 8.6049,0 15.64933,7.04443 15.64933,15.64934 0,8.64949 -7.04443,15.64933 -15.64933,15.64933 z m 0,-26.12681 c -5.79605,0 -10.47748,4.72601 -10.47748,10.47748 0,5.79605 4.68143,10.47747 10.47748,10.47747 5.75146,0 10.47747,-4.68142 10.47747,-10.47747 0,-5.75147 -4.72601,-10.47748 -10.47747,-10.47748 z"
 id="path1019-9"
 inkscape:connector-curvature="0" />
</g>
</g>
</svg>
